<svg width="183" height="54" viewBox="0 0 183 54" fill="none" xmlns="http://www.w3.org/2000/svg">
<path d="M13.896 19.8C16.128 19.8 18.06 20.172 19.692 20.916C21.348 21.66 22.62 22.716 23.508 24.084C24.396 25.452 24.84 27.072 24.84 28.944C24.84 30.792 24.396 32.412 23.508 33.804C22.62 35.172 21.348 36.228 19.692 36.972C18.06 37.692 16.128 38.052 13.896 38.052H8.82V45H2.988V19.8H13.896ZM13.572 33.3C15.324 33.3 16.656 32.928 17.568 32.184C18.48 31.416 18.936 30.336 18.936 28.944C18.936 27.528 18.48 26.448 17.568 25.704C16.656 24.936 15.324 24.552 13.572 24.552H8.82V33.3H13.572ZM37.7885 45.288C35.7485 45.288 33.9125 44.868 32.2805 44.028C30.6725 43.164 29.4125 41.976 28.5005 40.464C27.5885 38.952 27.1325 37.236 27.1325 35.316C27.1325 33.396 27.5885 31.68 28.5005 30.168C29.4125 28.656 30.6725 27.48 32.2805 26.64C33.9125 25.776 35.7485 25.344 37.7885 25.344C39.8285 25.344 41.6525 25.776 43.2605 26.64C44.8685 27.48 46.1285 28.656 47.0405 30.168C47.9525 31.68 48.4085 33.396 48.4085 35.316C48.4085 37.236 47.9525 38.952 47.0405 40.464C46.1285 41.976 44.8685 43.164 43.2605 44.028C41.6525 44.868 39.8285 45.288 37.7885 45.288ZM37.7885 40.68C39.2285 40.68 40.4045 40.2 41.3165 39.24C42.2525 38.256 42.7205 36.948 42.7205 35.316C42.7205 33.684 42.2525 32.388 41.3165 31.428C40.4045 30.444 39.2285 29.952 37.7885 29.952C36.3485 29.952 35.1605 30.444 34.2245 31.428C33.2885 32.388 32.8205 33.684 32.8205 35.316C32.8205 36.948 33.2885 38.256 34.2245 39.24C35.1605 40.2 36.3485 40.68 37.7885 40.68ZM58.6783 45.288C57.0703 45.288 55.4983 45.096 53.9623 44.712C52.4263 44.304 51.2023 43.8 50.2903 43.2L52.1623 39.168C53.0263 39.72 54.0703 40.176 55.2943 40.536C56.5183 40.872 57.7183 41.04 58.8943 41.04C61.2703 41.04 62.4583 40.452 62.4583 39.276C62.4583 38.724 62.1343 38.328 61.4863 38.088C60.8383 37.848 59.8423 37.644 58.4983 37.476C56.9143 37.236 55.6063 36.96 54.5743 36.648C53.5423 36.336 52.6423 35.784 51.8743 34.992C51.1303 34.2 50.7583 33.072 50.7583 31.608C50.7583 30.384 51.1063 29.304 51.8023 28.368C52.5223 27.408 53.5543 26.664 54.8983 26.136C56.2663 25.608 57.8743 25.344 59.7223 25.344C61.0903 25.344 62.4463 25.5 63.7903 25.812C65.1583 26.1 66.2863 26.508 67.1743 27.036L65.3023 31.032C63.5983 30.072 61.7383 29.592 59.7223 29.592C58.5223 29.592 57.6223 29.76 57.0223 30.096C56.4223 30.432 56.1223 30.864 56.1223 31.392C56.1223 31.992 56.4463 32.412 57.0943 32.652C57.7423 32.892 58.7743 33.12 60.1903 33.336C61.7743 33.6 63.0703 33.888 64.0783 34.2C65.0863 34.488 65.9623 35.028 66.7063 35.82C67.4503 36.612 67.8223 37.716 67.8223 39.132C67.8223 40.332 67.4623 41.4 66.7423 42.336C66.0223 43.272 64.9663 44.004 63.5743 44.532C62.2063 45.036 60.5743 45.288 58.6783 45.288ZM82.9513 44.064C82.3993 44.472 81.7153 44.784 80.8993 45C80.1073 45.192 79.2793 45.288 78.4153 45.288C76.0873 45.288 74.2993 44.7 73.0513 43.524C71.8033 42.348 71.1793 40.62 71.1793 38.34V21.348H76.7953V26.064H81.5833V30.384H76.7953V38.268C76.7953 39.084 76.9993 39.72 77.4073 40.176C77.8153 40.608 78.4033 40.824 79.1713 40.824C80.0353 40.824 80.8033 40.584 81.4753 40.104L82.9513 44.064ZM85.0517 32.616H95.2397V37.116H85.0517V32.616ZM111.106 25.344C112.906 25.344 114.538 25.764 116.002 26.604C117.49 27.42 118.654 28.584 119.494 30.096C120.334 31.584 120.754 33.324 120.754 35.316C120.754 37.308 120.334 39.06 119.494 40.572C118.654 42.06 117.49 43.224 116.002 44.064C114.538 44.88 112.906 45.288 111.106 45.288C108.442 45.288 106.414 44.448 105.022 42.768V45H99.6584V18.288H105.274V27.684C106.69 26.124 108.634 25.344 111.106 25.344ZM110.134 40.68C111.574 40.68 112.75 40.2 113.662 39.24C114.598 38.256 115.066 36.948 115.066 35.316C115.066 33.684 114.598 32.388 113.662 31.428C112.75 30.444 111.574 29.952 110.134 29.952C108.694 29.952 107.506 30.444 106.57 31.428C105.658 32.388 105.202 33.684 105.202 35.316C105.202 36.948 105.658 38.256 106.57 39.24C107.506 40.2 108.694 40.68 110.134 40.68ZM144.026 25.632V41.76C144.026 45.312 143.126 47.952 141.326 49.68C139.526 51.408 136.91 52.272 133.478 52.272C131.654 52.272 129.926 52.044 128.294 51.588C126.686 51.132 125.33 50.472 124.226 49.608L126.458 45.576C127.274 46.248 128.27 46.776 129.446 47.16C130.622 47.544 131.81 47.736 133.01 47.736C134.882 47.736 136.25 47.304 137.114 46.44C137.978 45.576 138.41 44.256 138.41 42.48V41.832C137.69 42.552 136.838 43.104 135.854 43.488C134.87 43.872 133.814 44.064 132.686 44.064C130.142 44.064 128.126 43.344 126.638 41.904C125.15 40.44 124.406 38.256 124.406 35.352V25.632H130.022V34.524C130.022 37.668 131.33 39.24 133.946 39.24C135.29 39.24 136.37 38.808 137.186 37.944C138.002 37.056 138.41 35.748 138.41 34.02V25.632H144.026Z" fill="black"/>
<rect x="147" y="5.17638" width="20" height="20" transform="rotate(-15 147 5.17638)" fill="#9B5858"/>
<rect x="162.301" y="9" width="20" height="20" transform="rotate(9.49998 162.301 9)" fill="#B66767"/>
</svg>
